<svg width="160" height="160" viewBox="0 0 160 160" fill="none" xmlns="http://www.w3.org/2000/svg">
  <path d="M48 80C48 58 66 40 88 40C104 40 124 54 128 72C116 76 108 84 106 96C120 90 132 92 132 92C124 118 100 136 76 132C60 130 48 118 48 102V80Z" fill="#66B8FF"/>
  <path d="M56 90C56 74 68 60 84 60C100 60 112 74 112 90C112 108 98 122 80 122C66 122 56 110 56 96V90Z" fill="#9CD9FF"/>
  <circle cx="92" cy="84" r="5" fill="#234976"/>
  <path d="M74 90C74 90 80 96 88 96" stroke="#234976" stroke-width="4" stroke-linecap="round"/>
  <path d="M52 114C52 114 64 120 78 120" stroke="#4D9BE6" stroke-width="6" stroke-linecap="round"/>
  <path d="M72 54L62 44" stroke="#4D9BE6" stroke-width="6" stroke-linecap="round"/>
  <circle cx="30" cy="108" r="9" fill="#C1EDFF"/>
  <circle cx="132" cy="118" r="10" fill="#C1EDFF"/>
  <circle cx="34" cy="52" r="8" fill="#C1EDFF"/>
  <circle cx="122" cy="46" r="9" fill="#C1EDFF"/>
</svg>
