<svg width="160" height="160" viewBox="0 0 160 160" fill="none" xmlns="http://www.w3.org/2000/svg">
  <path d="M46 56C46 42 58 30 72 30H88C102 30 114 42 114 56V96C114 118 98 136 80 136C62 136 46 118 46 96V56Z" fill="#FF6F91"/>
  <path d="M52 84L46 56C46 56 58 62 64 72" stroke="#FF9FBA" stroke-width="8" stroke-linecap="round"/>
  <path d="M108 84L114 56C114 56 102 62 96 72" stroke="#FF9FBA" stroke-width="8" stroke-linecap="round"/>
  <path d="M72 44L68 30L88 38L72 44Z" fill="#FFDA7A"/>
  <path d="M52 102C52 88 64 76 80 76C96 76 108 88 108 102C108 116 96 126 80 126C64 126 52 116 52 102Z" fill="#FF8DA5"/>
  <circle cx="66" cy="82" r="7" fill="#30213D"/>
  <circle cx="94" cy="82" r="7" fill="#30213D"/>
  <path d="M74 96C76 98 78 99 80 99C82 99 84 98 86 96" stroke="#30213D" stroke-width="4" stroke-linecap="round"/>
  <path d="M80 110C80 110 86 118 94 120" stroke="#30213D" stroke-width="4" stroke-linecap="round"/>
  <circle cx="30" cy="54" r="10" fill="#FFC1D9"/>
  <circle cx="130" cy="52" r="10" fill="#FFC1D9"/>
  <circle cx="34" cy="118" r="8" fill="#FFC1D9"/>
  <circle cx="126" cy="120" r="9" fill="#FFC1D9"/>
</svg>
