<svg width="160" height="160" viewBox="0 0 160 160" fill="none" xmlns="http://www.w3.org/2000/svg">
  <circle cx="56" cy="48" r="16" fill="#6BCB5F"/>
  <circle cx="104" cy="48" r="16" fill="#6BCB5F"/>
  <ellipse cx="80" cy="94" rx="44" ry="40" fill="#7DE66F"/>
  <ellipse cx="80" cy="110" rx="24" ry="18" fill="#B4FBB5"/>
  <ellipse cx="80" cy="114" rx="10" ry="6" fill="#4AA94B"/>
  <circle cx="56" cy="52" r="6" fill="white"/>
  <circle cx="104" cy="52" r="6" fill="white"/>
  <circle cx="56" cy="52" r="3" fill="#2B462A"/>
  <circle cx="104" cy="52" r="3" fill="#2B462A"/>
  <path d="M64 92C64 92 72 100 80 100C88 100 96 92 96 92" stroke="#2B462A" stroke-width="5" stroke-linecap="round"/>
  <circle cx="32" cy="120" r="8" fill="#C9FFCD"/>
  <circle cx="128" cy="118" r="9" fill="#C9FFCD"/>
  <circle cx="30" cy="60" r="9" fill="#C9FFCD"/>
  <circle cx="132" cy="62" r="10" fill="#C9FFCD"/>
  <path d="M48 84C48 84 52 70 64 68" stroke="#4AA94B" stroke-width="6" stroke-linecap="round"/>
  <path d="M112 84C112 84 108 70 96 68" stroke="#4AA94B" stroke-width="6" stroke-linecap="round"/>
</svg>
