<svg width="160" height="160" viewBox="0 0 160 160" fill="none" xmlns="http://www.w3.org/2000/svg">
  <path d="M52 58C52 46 60 36 72 34L80 46L88 34C100 36 108 46 108 58V104C108 122 94 136 80 136C66 136 52 122 52 104V58Z" fill="#8B6CF1"/>
  <path d="M60 92C60 78.7452 70.7452 68 84 68H86C99.2548 68 110 78.7452 110 92V100C110 112.15 100.15 122 88 122H82C69.8497 122 60 112.15 60 100V92Z" fill="#C3B6FF"/>
  <circle cx="66" cy="78" r="13" fill="#FFEFAF"/>
  <circle cx="66" cy="78" r="6" fill="#2E2556"/>
  <circle cx="94" cy="78" r="13" fill="#FFEFAF"/>
  <circle cx="94" cy="78" r="6" fill="#2E2556"/>
  <path d="M80 86L86 96L80 98L74 96L80 86Z" fill="#FF9F4A"/>
  <path d="M60 110C60 110 68 118 80 118C92 118 100 110 100 110" stroke="#6B50D8" stroke-width="6" stroke-linecap="round"/>
  <circle cx="36" cy="54" r="10" fill="#DAD2FF"/>
  <circle cx="124" cy="52" r="9" fill="#DAD2FF"/>
  <circle cx="28" cy="112" r="8" fill="#DAD2FF"/>
  <circle cx="132" cy="116" r="8" fill="#DAD2FF"/>
</svg>
