<svg width="160" height="160" viewBox="0 0 160 160" fill="none" xmlns="http://www.w3.org/2000/svg">
  <path d="M40 64C40 42.804 57.804 25 79 25C100.196 25 118 42.804 118 64V88C118 109.196 100.196 127 79 127C57.804 127 40 109.196 40 88V64Z" fill="#FFE0F7"/>
  <path d="M62 62C62 51.5066 70.5066 43 81 43V43C91.4934 43 100 51.5066 100 62V74C100 84.4934 91.4934 93 81 93V93C70.5066 93 62 84.4934 62 74V62Z" fill="white"/>
  <path d="M82 30L104 18C107 16.4 109 20.8 106.5 23L90 36L82 30Z" fill="#FFB3C7"/>
  <path d="M50 78C50 78 54 94 72 98C90 102 108 90 108 90" stroke="#FF7AAB" stroke-width="6" stroke-linecap="round"/>
  <path d="M92 58C92 58 88 62 81 62C74 62 70 58 70 58" stroke="#FF9ED6" stroke-width="5" stroke-linecap="round"/>
  <circle cx="69" cy="73" r="5" fill="#332A4A"/>
  <circle cx="93" cy="73" r="5" fill="#332A4A"/>
  <path d="M78 86C82 86 85 84 85 84" stroke="#FF7AA8" stroke-width="4" stroke-linecap="round"/>
  <path d="M45 67C45 57 52 49 61 49H65" stroke="#B384FF" stroke-width="10" stroke-linecap="round"/>
  <circle cx="124" cy="46" r="14" fill="#FFD93D"/>
  <circle cx="32" cy="110" r="10" fill="#C6B6FF"/>
  <circle cx="128" cy="114" r="8" fill="#FF9ED6"/>
</svg>
