<svg width="160" height="160" viewBox="0 0 160 160" fill="none" xmlns="http://www.w3.org/2000/svg">
  <circle cx="80" cy="78" r="48" fill="#FFB347"/>
  <circle cx="80" cy="82" r="36" fill="#FFCF7D"/>
  <circle cx="60" cy="70" r="10" fill="#FFB347"/>
  <circle cx="100" cy="70" r="10" fill="#FFB347"/>
  <ellipse cx="80" cy="92" rx="14" ry="12" fill="#FFE6B3"/>
  <ellipse cx="80" cy="98" rx="8" ry="6" fill="#3B2C2A"/>
  <path d="M72 88C75 90 77 91 80 91C83 91 85 90 88 88" stroke="#3B2C2A" stroke-width="4" stroke-linecap="round"/>
  <circle cx="66" cy="76" r="5" fill="#3B2C2A"/>
  <circle cx="94" cy="76" r="5" fill="#3B2C2A"/>
  <path d="M56 120C56 120 66 128 80 128C94 128 104 120 104 120" stroke="#F58E27" stroke-width="8" stroke-linecap="round"/>
  <circle cx="32" cy="52" r="12" fill="#FFE6B3"/>
  <circle cx="126" cy="48" r="10" fill="#FFCF7D"/>
  <circle cx="30" cy="116" r="8" fill="#FAD8A6"/>
  <circle cx="124" cy="118" r="9" fill="#FFE6B3"/>
</svg>
