<svg width="160" height="160" viewBox="0 0 160 160" fill="none" xmlns="http://www.w3.org/2000/svg">
  <path d="M52 118C48 108 46 96 46 84C46 60 60 38 80 38C100 38 114 60 114 84C114 96 112 108 108 118H52Z" fill="#2D3F66"/>
  <path d="M60 118C56 110 54 100 54 90C54 70 66 56 80 56C94 56 106 70 106 90C106 100 104 110 100 118H60Z" fill="white"/>
  <path d="M72 120C72 116 75 113 79 113H81C85 113 88 116 88 120H72Z" fill="#F7A23B"/>
  <circle cx="68" cy="84" r="6" fill="#1B2438"/>
  <circle cx="92" cy="84" r="6" fill="#1B2438"/>
  <path d="M80 96L86 102L80 104L74 102L80 96Z" fill="#F7A23B"/>
  <path d="M50 120C50 120 60 132 80 132C100 132 110 120 110 120" stroke="#2D3F66" stroke-width="8" stroke-linecap="round"/>
  <circle cx="122" cy="52" r="12" fill="#C7E4FF"/>
  <circle cx="34" cy="48" r="10" fill="#C7E4FF"/>
  <circle cx="32" cy="116" r="8" fill="#C7E4FF"/>
  <circle cx="128" cy="118" r="9" fill="#C7E4FF"/>
</svg>
