<svg width="160" height="160" viewBox="0 0 160 160" fill="none" xmlns="http://www.w3.org/2000/svg">
  <path d="M40 44L78 68C80 69.2 82 69.2 84 68L122 44L112 96C108 118 93 134 80 134C67 134 52 118 48 96L40 44Z" fill="#FF9248"/>
  <path d="M64 88C64 75.2975 73.2975 66 86 66H94C106.703 66 116 75.2975 116 88V94C116 109.911 103.911 122 88 122H78C62.0883 122 50 109.911 50 94V88C50 75.2975 59.2975 66 72 66H80" fill="#FFD7B6"/>
  <path d="M72 104C72 104 76 110 80 110C84 110 88 104 88 104" stroke="#CD6933" stroke-width="4" stroke-linecap="round"/>
  <circle cx="66" cy="90" r="6" fill="#231B1A"/>
  <circle cx="102" cy="90" r="6" fill="#231B1A"/>
  <path d="M52 72L40 44" stroke="#FFB37A" stroke-width="8" stroke-linecap="round"/>
  <path d="M108 72L120 44" stroke="#FFB37A" stroke-width="8" stroke-linecap="round"/>
  <path d="M80 112C80 112 83 118 90 120" stroke="#CD6933" stroke-width="4" stroke-linecap="round"/>
  <circle cx="28" cy="54" r="10" fill="#FFD7B6"/>
  <circle cx="134" cy="52" r="10" fill="#FFD7B6"/>
  <circle cx="30" cy="118" r="8" fill="#FFCFAA"/>
  <circle cx="130" cy="120" r="9" fill="#FFCFAA"/>
</svg>
